<?xml version="1.0" encoding="utf-8"?>
<!-- Generator: Adobe Illustrator 19.0.1, SVG Export Plug-In . SVG Version: 6.00 Build 0)  -->
<svg version="1.1" id="Слой_1" xmlns="http://www.w3.org/2000/svg" xmlns:xlink="http://www.w3.org/1999/xlink" x="0px" y="0px"
	 viewBox="0 0 100 100" style="enable-background:new 0 0 100 100;" xml:space="preserve">
<style type="text/css">
	.st0{fill:#9E2125;}
</style>
<g>
	<path class="st0" d="M0,88c0.2,0,0.4-0.1,0.5-0.1C3,80.5,8.8,76.6,15.7,73.9c2.8-1.1,5.6-2.2,8.2-3.6c4.3-2.3,6.2-7.7,3.6-11.8
		c-2.2-3.5-3-7.7-5.9-10.9c-1.4-1.6-2.2-4.3-1.2-6.6c1.2-2.8,0.6-5.6,0.1-8.3c-0.8-4-0.6-8,0.6-11.8c1.7-5.6,5.3-9.5,11.2-11
		c6.1-1.5,12.1-2.1,17.6,2.1c0.5,0.4,1.2,0.6,1.8,0.8c5.6,2,7.9,6.4,8.2,11.9c0.2,2.8,0.1,5.7-0.3,8.4c-0.5,2.8-0.8,5.4,0,8.3
		c0.8,2.8-0.8,5.3-2.3,7.9c-2.7,4.6-5.8,9.2-5.5,15c0.1,2.2,0.8,3.9,2.7,4.9c2.5,1.3,5.1,2.4,7.6,3.6c3,1.4,6.2,2.5,9,4.3
		C77,81,80.3,86.2,79.9,94C53.1,94,26.6,94,0,94C0,92,0,90,0,88z"/>
	<path class="st0" d="M100,83c-6,0-12,0-18.2,0C77.9,75.8,71.3,72.3,64,69.4c-1.5-0.6-3.1-1.2-4.6-1.9c-3.5-1.6-4.6-3.6-3.2-7.1
		c1.3-3,2.8-6,4.5-8.9c2.3-3.8,3.7-7.7,2.5-12.3c-0.4-1.5,0.2-3.3,0.2-4.9c0.1-4.3,0.7-8.7,0-12.9c-0.5-3.1-2.5-6-4-9.5
		c1.5-1.5,4.1-1.2,6.4-1.1c2.3,0.1,4.5,0.7,6.7,1.4c1.4,0.4,2.6,1.5,3.9,2.1c4.1,1.8,6.1,5.1,6.5,9.3c0.2,2,0.1,4,0.1,6
		c-0.1,3.2-1.4,6.4-0.2,9.8c0.4,1.3-0.5,3.3-1.2,4.7c-1.4,3-3.2,5.8-4.7,8.7c-2.2,4.3-1.1,7.8,3.2,9.9c1.8,0.9,3.6,1.7,5.5,2.3
		c6.5,2.3,11.7,6.1,14.3,12.8C100,79.7,100,81.3,100,83z"/>
</g>
</svg>
