<?xml version="1.0" encoding="UTF-8"?>
<!DOCTYPE svg PUBLIC "-//W3C//DTD SVG 1.1//EN" "http://www.w3.org/Graphics/SVG/1.1/DTD/svg11.dtd">
<!-- Creator: CorelDRAW X6 -->
<svg xmlns="http://www.w3.org/2000/svg" xml:space="preserve" width="100px" height="100px" version="1.1" style="shape-rendering:geometricPrecision; text-rendering:geometricPrecision; image-rendering:optimizeQuality; fill-rule:evenodd; clip-rule:evenodd"
viewBox="0 0 100 100"
 xmlns:xlink="http://www.w3.org/1999/xlink">
 <defs>
  <style type="text/css">
   <![CDATA[
    .fil0 {fill:#9C2124}
   ]]>
  </style>
 </defs>
 <g id="Слой_x0020_1">
  <metadata id="CorelCorpID_0Corel-Layer"/>
  <g id="_759081824">
   <path class="fil0" d="M44 9c3,11 34,10 44,8 5,-1 9,-2 12,-7 -3,-12 -47,-14 -56,-1z"/>
   <path class="fil0" d="M0 47c7,11 49,11 56,0 -1,-5 -4,-6 -11,-8 -12,-3 -42,-3 -45,8z"/>
   <path class="fil0" d="M100 16c-5,1 -6,3 -13,4 -12,2 -18,2 -31,0 -7,-1 -8,-3 -13,-4 0,11 -1,12 8,15 12,4 28,4 39,0 7,-2 8,-3 8,-10l0 -4 0 -1z"/>
   <path class="fil0" d="M0 93c6,4 14,6 23,7l11 0c8,-1 17,-3 23,-7l0 -10c-10,2 -10,5 -28,5 -18,0 -18,-3 -28,-5l0 10z"/>
   <path class="fil0" d="M0 78c14,10 41,10 56,0l0 -10c-7,2 -13,6 -28,6 -15,0 -21,-4 -28,-6l0 10z"/>
   <path class="fil0" d="M0 63c14,10 41,10 56,0l0 -10c-5,1 -13,6 -28,6 -3,0 -13,-1 -15,-2 -5,-1 -8,-3 -13,-4l0 10z"/>
   <path class="fil0" d="M44 36c4,0 8,2 11,3 3,2 5,4 5,9 9,0 29,1 37,-5 2,-1 2,-3 3,-4l0 -8 0 0c-6,1 -12,6 -27,6 -5,0 -10,-1 -16,-1 -7,-1 -10,-4 -13,-5l0 5z"/>
   <path class="fil0" d="M71 52c-6,0 -6,-1 -11,-1l0 12c10,0 30,2 38,-5 1,-1 2,-2 2,-4l0 -8 0 0c-8,2 -9,6 -29,6z"/>
   <path class="fil0" d="M70 67c-6,0 -5,-1 -10,-1l0 12c10,0 16,2 28,-1 3,-1 8,-2 10,-4 1,-1 2,-2 2,-4l0 -8 0 0c-3,1 -3,1 -6,3 -2,1 -5,2 -7,2 -6,1 -11,1 -17,1z"/>
  </g>
 </g>
</svg>
