<?xml version='1.0' encoding='iso-8859-1'?>
<svg version="1.1" xmlns="http://www.w3.org/2000/svg" viewBox="0 0 488.6 488.6" xmlns:xlink="http://www.w3.org/1999/xlink" enable-background="new 0 0 488.6 488.6">
  <g>
    <g>
      <path d="m480.4,334.3l-8.8-18.8-163.2,76.7c-11.1-16.5-30-27.3-51.3-27.3-5,0-9.8,0.6-14.4,1.7l-173.2-366.6-61.3,3.1 1,20.8 46.8-3.1 52.3,110.6-31.5,80.7 66.5,125.8 17.7-9.4-61.3-117.5 20.6-54.4 103.1,218.2c-17,11-28.2,30.1-28.2,51.9 0,34.2 27.7,61.9 61.9,61.9s61.9-27.7 61.9-61.9c0-5.4-0.7-10.6-2-15.6l163.4-76.8zm-223.3,133.5c-22.7,0-41-18.4-41-41 0-22.7 18.4-41 41-41 22.7,0 41,18.4 41,41s-18.4,41-41,41z"/>
      <path d="m457.3,258.9l-88.4-185-185,89.4 88.4,185 185-89.4zm-97.8-157l70.7,147.6-148.7,70.7-70.7-147.6 148.7-70.7z"/>
    </g>
  </g>
</svg>
